<svg width="25" height="25" viewBox="0 0 25 25" fill="none" xmlns="http://www.w3.org/2000/svg">
<path d="M5.20833 22.9167H19.7917C20.3442 22.9167 20.8741 22.6972 21.2648 22.3065C21.6555 21.9158 21.875 21.3859 21.875 20.8333V11.4583C21.8758 11.3213 21.8495 11.1854 21.7977 11.0584C21.7458 10.9315 21.6695 10.8161 21.5729 10.7188L13.2396 2.38543C13.0444 2.19142 12.7804 2.08252 12.5052 2.08252C12.23 2.08252 11.966 2.19142 11.7708 2.38543L3.4375 10.7188C3.33907 10.8152 3.26077 10.9303 3.20713 11.0572C3.15349 11.1842 3.12557 11.3205 3.125 11.4583V20.8333C3.125 21.3859 3.34449 21.9158 3.73519 22.3065C4.12589 22.6972 4.6558 22.9167 5.20833 22.9167ZM10.4167 20.8333V15.625H14.5833V20.8333H10.4167ZM5.20833 11.8854L12.5 4.59376L19.7917 11.8854V20.8333H16.6667V15.625C16.6667 15.0725 16.4472 14.5426 16.0565 14.1519C15.6658 13.7612 15.1359 13.5417 14.5833 13.5417H10.4167C9.86413 13.5417 9.33423 13.7612 8.94353 14.1519C8.55283 14.5426 8.33333 15.0725 8.33333 15.625V20.8333H5.20833V11.8854Z" fill="white"/>
</svg>
