<svg width="35" height="35" viewBox="0 0 35 35" fill="none" xmlns="http://www.w3.org/2000/svg">
<path d="M14.5834 26.25C17.1719 26.2495 19.6858 25.3829 21.7248 23.7883L28.1356 30.1992L30.1977 28.1371L23.7869 21.7263C25.3823 19.687 26.2494 17.1725 26.25 14.5833C26.25 8.15063 21.0161 2.91667 14.5834 2.91667C8.15065 2.91667 2.91669 8.15063 2.91669 14.5833C2.91669 21.016 8.15065 26.25 14.5834 26.25ZM14.5834 5.83334C19.409 5.83334 23.3334 9.75771 23.3334 14.5833C23.3334 19.409 19.409 23.3333 14.5834 23.3333C9.75773 23.3333 5.83335 19.409 5.83335 14.5833C5.83335 9.75771 9.75773 5.83334 14.5834 5.83334Z" fill="#06BEE1"/>
<path d="M16.6425 12.5213C17.1952 13.0754 17.5 13.8075 17.5 14.5833H20.4167C20.418 13.8169 20.2673 13.0578 19.9735 12.3499C19.6796 11.642 19.2483 10.9994 18.7046 10.4592C16.4967 8.25417 12.6686 8.25417 10.4621 10.4592L12.5213 12.5242C13.6296 11.4188 15.54 11.4217 16.6425 12.5213Z" fill="#06BEE1"/>
</svg>
