<svg width="25" height="25" viewBox="0 0 25 25" fill="none" xmlns="http://www.w3.org/2000/svg">
<path d="M12.5 2.08334C11.4699 2.08334 10.4629 2.38881 9.6064 2.96111C8.7499 3.5334 8.08233 4.34684 7.68813 5.29853C7.29392 6.25023 7.19078 7.29745 7.39174 8.30777C7.59271 9.31809 8.08875 10.2461 8.81715 10.9745C9.54555 11.7029 10.4736 12.199 11.4839 12.3999C12.4942 12.6009 13.5414 12.4978 14.4931 12.1035C15.4448 11.7093 16.2583 11.0418 16.8306 10.1853C17.4029 9.32877 17.7083 8.32179 17.7083 7.29168C17.7083 5.91034 17.1596 4.58558 16.1828 3.60883C15.2061 2.63208 13.8813 2.08334 12.5 2.08334ZM12.5 10.4167C11.8819 10.4167 11.2777 10.2334 10.7638 9.89002C10.2499 9.54664 9.8494 9.05858 9.61288 8.48756C9.37635 7.91654 9.31447 7.28821 9.43505 6.68202C9.55562 6.07583 9.85325 5.51901 10.2903 5.08197C10.7273 4.64493 11.2842 4.3473 11.8903 4.22672C12.4965 4.10614 13.1249 4.16803 13.6959 4.40455C14.2669 4.64108 14.755 5.04162 15.0983 5.55552C15.4417 6.06942 15.625 6.67361 15.625 7.29168C15.625 8.12048 15.2958 8.91533 14.7097 9.50139C14.1237 10.0874 13.3288 10.4167 12.5 10.4167ZM21.875 21.875V20.8333C21.875 18.8995 21.1068 17.0448 19.7393 15.6774C18.3719 14.3099 16.5172 13.5417 14.5833 13.5417H10.4167C8.4828 13.5417 6.62813 14.3099 5.26068 15.6774C3.89323 17.0448 3.125 18.8995 3.125 20.8333V21.875H5.20833V20.8333C5.20833 19.452 5.75707 18.1272 6.73382 17.1505C7.71057 16.1737 9.03533 15.625 10.4167 15.625H14.5833C15.9647 15.625 17.2894 16.1737 18.2662 17.1505C19.2429 18.1272 19.7917 19.452 19.7917 20.8333V21.875H21.875Z" fill="white" fill-opacity="0.69"/>
</svg>
