<svg width="25" height="25" viewBox="0 0 25 25" fill="none" xmlns="http://www.w3.org/2000/svg">
<g clip-path="url(#clip0_2_78)">
<path d="M7.8125 4.6894V6.2519H22.6562V9.34492L20.9229 14.8457H7.3209L5.36777 0.78125H0.78125V2.34375H4.00723L5.96035 16.4082H22.0687L24.2188 9.58525V4.6894H7.8125ZM8.6418 17.9855C7.81328 17.9865 7.01898 18.316 6.43313 18.9019C5.84728 19.4877 5.51774 20.282 5.5168 21.1105C5.5168 21.9394 5.84604 22.7342 6.43209 23.3203C7.01814 23.9063 7.81299 24.2355 8.6418 24.2355C9.4706 24.2355 10.2655 23.9063 10.8515 23.3203C11.4376 22.7342 11.7668 21.9394 11.7668 21.1105C11.7659 20.282 11.4363 19.4877 10.8505 18.9019C10.2646 18.316 9.47031 17.9865 8.6418 17.9855ZM8.6418 22.673C8.33276 22.673 8.03067 22.5814 7.77372 22.4097C7.51677 22.238 7.3165 21.994 7.19824 21.7085C7.07997 21.423 7.04903 21.1088 7.10932 20.8057C7.16961 20.5026 7.31842 20.2242 7.53694 20.0057C7.75546 19.7872 8.03387 19.6384 8.33697 19.5781C8.64006 19.5178 8.95423 19.5487 9.23974 19.667C9.52525 19.7852 9.76928 19.9855 9.94097 20.2425C10.1127 20.4994 10.2043 20.8015 10.2043 21.1105C10.2038 21.5248 10.039 21.9219 9.74611 22.2149C9.45319 22.5078 9.05605 22.6726 8.6418 22.673ZM19.5793 17.9855C18.7508 17.9865 17.9565 18.316 17.3706 18.9019C16.7848 19.4877 16.4552 20.282 16.4543 21.1105C16.4543 21.9394 16.7835 22.7342 17.3696 23.3203C17.9556 23.9063 18.7505 24.2355 19.5793 24.2355C20.4081 24.2355 21.203 23.9063 21.789 23.3203C22.3751 22.7342 22.7043 21.9394 22.7043 21.1105C22.7034 20.282 22.3738 19.4877 21.788 18.9019C21.2021 18.316 20.4078 17.9865 19.5793 17.9855ZM19.5793 22.673C19.2703 22.673 18.9682 22.5814 18.7112 22.4097C18.4543 22.238 18.254 21.994 18.1357 21.7085C18.0175 21.423 17.9865 21.1088 18.0468 20.8057C18.1071 20.5026 18.2559 20.2242 18.4744 20.0057C18.693 19.7872 18.9714 19.6384 19.2745 19.5781C19.5776 19.5178 19.8917 19.5487 20.1772 19.667C20.4627 19.7852 20.7068 19.9855 20.8785 20.2425C21.0502 20.4994 21.1418 20.8015 21.1418 21.1105C21.1413 21.5248 20.9765 21.9219 20.6836 22.2149C20.3907 22.5078 19.9935 22.6726 19.5793 22.673Z" fill="white" fill-opacity="0.69"/>
</g>
<defs>
<clipPath id="clip0_2_78">
<rect width="25" height="25" fill="white"/>
</clipPath>
</defs>
</svg>
