<svg width="25" height="25" viewBox="0 0 25 25" fill="none" xmlns="http://www.w3.org/2000/svg">
<g clip-path="url(#clip0_2_74)">
<path d="M14.4583 10.632L7.26389 6.25001C6.94444 6.06946 6.49306 6.50696 6.66667 6.83335L10.9375 14.1667L18.2708 18.4375C18.3536 18.4675 18.4433 18.4731 18.5292 18.4535C18.615 18.4338 18.6934 18.3899 18.755 18.3269C18.8165 18.2639 18.8586 18.1845 18.8762 18.0982C18.8938 18.0119 18.8861 17.9224 18.8542 17.8403L14.4583 10.632ZM11.6806 13.4097L13.7639 11.3264L16.9236 16.4931L11.6806 13.4097Z" fill="white" fill-opacity="0.69"/>
<path d="M12.5 1.38889C10.3024 1.38889 8.15421 2.04054 6.327 3.26145C4.49979 4.48235 3.07565 6.21767 2.23467 8.24796C1.3937 10.2782 1.17366 12.5123 1.60239 14.6677C2.03111 16.823 3.08934 18.8028 4.64326 20.3567C6.19718 21.9107 8.17699 22.9689 10.3323 23.3976C12.4877 23.8263 14.7218 23.6063 16.752 22.7653C18.7823 21.9244 20.5177 20.5002 21.7386 18.673C22.9595 16.8458 23.6111 14.6976 23.6111 12.5C23.6111 9.55315 22.4405 6.72699 20.3567 4.64325C18.273 2.55952 15.4469 1.38889 12.5 1.38889ZM13.1944 22.1875V20.5069H11.8056V22.1875C9.47639 22.0185 7.28588 21.0167 5.63458 19.3654C3.98327 17.7141 2.98152 15.5236 2.8125 13.1944H4.49306V11.8056H2.8125C2.98152 9.47638 3.98327 7.28587 5.63458 5.63457C7.28588 3.98327 9.47639 2.98152 11.8056 2.8125V4.49305H13.1944V2.8125C15.5236 2.98152 17.7141 3.98327 19.3654 5.63457C21.0167 7.28587 22.0185 9.47638 22.1875 11.8056H20.5069V13.1944H22.1875C22.0185 15.5236 21.0167 17.7141 19.3654 19.3654C17.7141 21.0167 15.5236 22.0185 13.1944 22.1875Z" fill="white" fill-opacity="0.69"/>
</g>
<defs>
<clipPath id="clip0_2_74">
<rect width="25" height="25" fill="white"/>
</clipPath>
</defs>
</svg>
