<svg width="30" height="30" viewBox="0 0 30 30" fill="none" xmlns="http://www.w3.org/2000/svg">
<path d="M24.8875 19.3875H19.225C18.8935 19.3875 18.5755 19.5192 18.3411 19.7536C18.1067 19.988 17.975 20.306 17.975 20.6375C17.975 20.969 18.1067 21.287 18.3411 21.5214C18.5755 21.7558 18.8935 21.8875 19.225 21.8875H22.225C20.8462 23.3284 19.068 24.3241 17.119 24.7467C15.1699 25.1693 13.139 24.9995 11.2872 24.2591C9.43543 23.5186 7.84734 22.2414 6.72699 20.5915C5.60664 18.9416 5.00522 16.9943 5 15C5 14.6685 4.8683 14.3505 4.63388 14.1161C4.39946 13.8817 4.08152 13.75 3.75 13.75C3.41848 13.75 3.10054 13.8817 2.86612 14.1161C2.6317 14.3505 2.5 14.6685 2.5 15C2.50661 17.441 3.22778 19.8266 4.5745 21.8625C5.92123 23.8984 7.83458 25.4954 10.0784 26.4565C12.3223 27.4176 14.7984 27.7007 17.2013 27.2708C19.6041 26.8409 21.8285 25.7169 23.6 24.0375V26.25C23.6 26.5815 23.7317 26.8995 23.9661 27.1339C24.2005 27.3683 24.5185 27.5 24.85 27.5C25.1815 27.5 25.4995 27.3683 25.7339 27.1339C25.9683 26.8995 26.1 26.5815 26.1 26.25V20.625C26.0969 20.302 25.9689 19.9928 25.7429 19.7621C25.5169 19.5314 25.2103 19.3972 24.8875 19.3875ZM15 2.5C11.7955 2.50914 8.71686 3.74864 6.4 5.9625V3.75C6.4 3.41848 6.2683 3.10054 6.03388 2.86612C5.79946 2.6317 5.48152 2.5 5.15 2.5C4.81848 2.5 4.50054 2.6317 4.26612 2.86612C4.0317 3.10054 3.9 3.41848 3.9 3.75V9.375C3.9 9.70652 4.0317 10.0245 4.26612 10.2589C4.50054 10.4933 4.81848 10.625 5.15 10.625H10.775C11.1065 10.625 11.4245 10.4933 11.6589 10.2589C11.8933 10.0245 12.025 9.70652 12.025 9.375C12.025 9.04348 11.8933 8.72554 11.6589 8.49112C11.4245 8.2567 11.1065 8.125 10.775 8.125H7.775C9.15308 6.68484 10.9301 5.68937 12.878 5.26639C14.8259 4.8434 16.8557 5.01218 18.707 5.75108C20.5583 6.48997 22.1465 7.76526 23.2678 9.41325C24.3891 11.0612 24.9923 13.0067 25 15C25 15.3315 25.1317 15.6495 25.3661 15.8839C25.6005 16.1183 25.9185 16.25 26.25 16.25C26.5815 16.25 26.8995 16.1183 27.1339 15.8839C27.3683 15.6495 27.5 15.3315 27.5 15C27.5 13.3585 27.1767 11.733 26.5485 10.2165C25.9203 8.69989 24.9996 7.3219 23.8388 6.16117C22.6781 5.00043 21.3001 4.07969 19.7835 3.45151C18.267 2.82332 16.6415 2.5 15 2.5Z" fill="#06BEE1"/>
</svg>
