<svg width="46" height="46" viewBox="0 0 46 46" fill="none" xmlns="http://www.w3.org/2000/svg">
<path d="M38.0877 9.03301C38.056 8.80301 37.8545 8.67572 37.688 8.6617C37.5218 8.64784 34.0044 8.38712 34.0044 8.38712C34.0044 8.38712 31.5615 5.96188 31.2934 5.69344C31.0251 5.42516 30.5012 5.50676 30.2978 5.56662C30.2679 5.57544 29.7641 5.73093 28.9307 5.98881C28.1147 3.64061 26.6745 1.4827 24.1409 1.4827C24.0709 1.4827 23.9989 1.48554 23.9269 1.48964C23.2064 0.536711 22.3138 0.122711 21.5428 0.122711C15.6408 0.122711 12.8211 7.50083 11.937 11.2501C9.64363 11.9608 8.01441 12.466 7.80631 12.5314C6.52618 12.9329 6.4857 12.9733 6.31761 14.1795C6.19111 15.0927 2.84161 40.9959 2.84161 40.9959L28.9416 45.8861L43.0834 42.8268C43.0834 42.8268 38.1189 9.26301 38.0877 9.03301ZM27.4882 6.43495L25.2797 7.11849C25.2805 6.96285 25.2813 6.80973 25.2813 6.64227C25.2813 5.18287 25.0787 4.00782 24.7537 3.07632C26.0592 3.24016 26.9286 4.72555 27.4882 6.43495ZM23.1342 3.36571C23.4972 4.27516 23.7332 5.58033 23.7332 7.34156C23.7332 7.43167 23.7324 7.51406 23.7316 7.5974C22.2954 8.04227 20.7347 8.52527 19.1705 9.00985C20.0488 5.62034 21.695 3.98325 23.1342 3.36571ZM21.3807 1.70577C21.6355 1.70577 21.8921 1.79226 22.1377 1.96129C20.2462 2.85136 18.2187 5.09307 17.3625 9.56973L13.7572 10.6863C14.76 7.27177 17.1415 1.70577 21.3807 1.70577Z" fill="#5DC1D3"/>
<path d="M37.688 8.66172C37.5218 8.64785 34.0044 8.38713 34.0044 8.38713C34.0044 8.38713 31.5615 5.96189 31.2934 5.69345C31.193 5.59358 31.0577 5.54238 30.9162 5.52032L28.9428 45.8858L43.0834 42.8268C43.0834 42.8268 38.1189 9.26302 38.0877 9.03302C38.056 8.80302 37.8545 8.67574 37.688 8.66172Z" fill="#06BEE1"/>
<path d="M24.1409 16.4757L22.3971 21.6627C22.3971 21.6627 20.8694 20.8473 18.9966 20.8473C16.2511 20.8473 16.1129 22.5702 16.1129 23.0044C16.1129 25.3734 22.2883 26.2811 22.2883 31.8301C22.2883 36.1958 19.5193 39.007 15.7857 39.007C11.3055 39.007 9.01428 36.2187 9.01428 36.2187L10.2139 32.2551C10.2139 32.2551 12.569 34.2771 14.5563 34.2771C15.8549 34.2771 16.3831 33.2547 16.3831 32.5077C16.3831 29.4175 11.3168 29.2796 11.3168 24.2018C11.3168 19.9281 14.3843 15.7923 20.5764 15.7923C22.9622 15.7923 24.1409 16.4757 24.1409 16.4757Z" fill="white"/>
</svg>
